<svg xmlns="http://www.w3.org/2000/svg" version="1.1" xmlns:xlink="http://www.w3.org/1999/xlink" xmlns:svgjs="http://svgjs.dev/svgjs" width="1000" height="1000" viewBox="0 0 1000 1000"><rect width="1000" height="1000" fill="#000000"></rect><g transform="matrix(0.7,0,0,0.7,149.5757575757575,440.00130804804087)"><svg viewBox="0 0 396 68" data-background-color="#000000" preserveAspectRatio="xMidYMid meet" height="171" width="1000" xmlns="http://www.w3.org/2000/svg" xmlns:xlink="http://www.w3.org/1999/xlink"><g id="tight-bounds" transform="matrix(1,0,0,1,0.24000000000003752,0.08446994764597093)"><svg viewBox="0 0 395.5199999999999 67.83106010470803" height="67.83106010470803" width="395.5199999999999"><g><svg viewBox="0 0 494.891264629551 84.87307624489797" height="67.83106010470803" width="395.5199999999999"><g transform="matrix(1,0,0,1,0,11.729925877551025)"><svg viewBox="0 0 395.52 61.41322448979592" height="61.41322448979592" width="395.52"><g id="textblocktransform"><svg viewBox="0 0 395.52 61.41322448979592" height="61.41322448979592" width="395.52" id="textblock"><g><svg viewBox="0 0 395.52 61.41322448979592" height="61.41322448979592" width="395.52"><g transform="matrix(1,0,0,1,0,0)"><svg width="395.52" viewBox="0 -29.5 293.99 45.65" height="61.41322448979592" data-palette-color="#89939e"><path d="M1.5 0L0 0 0-29.5 1.5-29.5 1.5 0ZM7.5 0L3 0 3-29.5 7.5-29.5 7.5 0ZM10.5 0L9 0 9-29.5 10.5-29.5 10.5 0ZM16.5 0L12 0 12-29.5 16.5-29.5 16.5 0ZM24 0L22.5 0 22.5-29.5 24-29.5 24 0ZM12.7 16.15L12.7 16.15Q10.45 16.15 9.05 14.65L9.05 14.65 9.75 13.5 9.8 13.35 9.95 13.4Q9.95 13.45 10 13.6L10 13.6Q10 13.7 10.1 13.85L10.1 13.85Q10.15 13.95 10.3 14.05L10.3 14.05Q11.35 14.95 12.9 14.95L12.9 14.95Q13.9 14.95 14.6 14.4L14.6 14.4Q15.3 13.8 15.3 13L15.3 13Q15.3 12.45 15.05 12.05L15.05 12.05Q14.85 11.7 14.3 11.35L14.3 11.35Q13.75 11 12.6 10.5L12.6 10.5Q10.9 9.85 10.15 9L10.15 9Q9.45 8.15 9.45 7.1L9.45 7.1Q9.45 5.8 10.4 5L10.4 5Q11.35 4.2 12.95 4.2L12.95 4.2Q13.9 4.2 14.75 4.6L14.75 4.6Q15.55 5 16.2 5.65L16.2 5.65 15.35 6.8 15.25 6.7Q15.25 6.65 15.2 6.55L15.2 6.55Q15.2 6.4 15.1 6.3L15.1 6.3Q15.05 6.15 14.9 6.05L14.9 6.05Q14.5 5.65 13.95 5.45L13.95 5.45Q13.45 5.3 12.75 5.3L12.75 5.3Q11.85 5.3 11.35 5.8L11.35 5.8Q10.8 6.3 10.8 7L10.8 7Q10.8 7.55 11 7.95L11 7.95Q11.25 8.35 11.85 8.7L11.85 8.7Q12.45 9.1 13.65 9.55L13.65 9.55Q15.3 10.25 15.95 10.95L15.95 10.95Q16.55 11.7 16.55 12.8L16.55 12.8Q16.55 13.65 16.15 14.4L16.15 14.4Q15.7 15.15 14.85 15.65L14.85 15.65Q13.95 16.15 12.7 16.15ZM27 0L25.5 0 25.5-29.5 27-29.5 27 0ZM34.5 0L33 0 33-29.5 34.5-29.5 34.5 0ZM37.5 0L36 0 36-29.5 37.5-29.5 37.5 0ZM45 0L43.5 0 43.5-29.5 45-29.5 45 0ZM52.5 0L51 0 51-29.5 52.5-29.5 52.5 0ZM55.5 0L54 0 54-29.5 55.5-29.5 55.5 0ZM61.5 0L57 0 57-29.5 61.5-29.5 61.5 0ZM64.5 0L63 0 63-29.5 64.5-29.5 64.5 0ZM75 0L70.5 0 70.5-29.5 75-29.5 75 0ZM78 0L76.5 0 76.5-29.5 78-29.5 78 0ZM49.7 15.95L49.7 14.85 51.9 14.85 51.9 8.55 49.8 8.55 49.8 7.45 53.2 7.45 53.2 14.85 55.2 14.85 55.2 15.95 49.7 15.95ZM52.5 5.65L52.5 5.65Q52.1 5.65 51.8 5.4L51.8 5.4Q51.55 5.1 51.55 4.7L51.55 4.7Q51.55 4.3 51.8 4.05L51.8 4.05Q52.05 3.75 52.5 3.75L52.5 3.75Q52.85 3.75 53.15 4.05L53.15 4.05Q53.45 4.35 53.45 4.7L53.45 4.7Q53.45 5.1 53.15 5.4L53.15 5.4Q52.85 5.65 52.5 5.65ZM81 0L79.5 0 79.5-29.5 81-29.5 81 0ZM88.5 0L87 0 87-29.5 88.5-29.5 88.5 0ZM91.5 0L90 0 90-29.5 91.5-29.5 91.5 0ZM99 0L97.5 0 97.5-29.5 99-29.5 99 0ZM106.5 0L105 0 105-29.5 106.5-29.5 106.5 0ZM112.5 0L108 0 108-29.5 112.5-29.5 112.5 0ZM115.5 0L114 0 114-29.5 115.5-29.5 115.5 0ZM121.5 0L117 0 117-29.5 121.5-29.5 121.5 0ZM129 0L127.5 0 127.5-29.5 129-29.5 129 0ZM132 0L130.5 0 130.5-29.5 132-29.5 132 0ZM106.9 16.15L106.9 16.15Q105 16.15 103.9 15L103.9 15Q102.75 13.85 102.75 11.75L102.75 11.75Q102.75 10.35 103.3 9.3L103.3 9.3Q103.8 8.3 104.7 7.8L104.7 7.8Q105.55 7.25 106.65 7.25L106.65 7.25Q108.2 7.25 109.15 8.25L109.15 8.25Q110.09 9.3 110.09 11.3L110.09 11.3Q110.09 11.5 110.09 11.9L110.09 11.9 104.05 11.9Q104.09 13.45 104.9 14.25L104.9 14.25Q105.7 15.05 106.95 15.05L106.95 15.05Q108.3 15.05 109.15 14.1L109.15 14.1 109.9 14.85Q108.8 16.15 106.9 16.15ZM104.09 10.85L108.75 10.85Q108.75 9.65 108.15 8.95L108.15 8.95Q107.55 8.25 106.55 8.25L106.55 8.25Q105.65 8.25 104.95 8.9L104.95 8.9Q104.25 9.55 104.09 10.85L104.09 10.85ZM134.99 0L133.49 0 133.49-29.5 134.99-29.5 134.99 0ZM142.49 0L140.99 0 140.99-29.5 142.49-29.5 142.49 0ZM145.49 0L143.99 0 143.99-29.5 145.49-29.5 145.49 0ZM152.99 0L151.49 0 151.49-29.5 152.99-29.5 152.99 0ZM160.49 0L158.99 0 158.99-29.5 160.49-29.5 160.49 0ZM166.49 0L161.99 0 161.99-29.5 166.49-29.5 166.49 0ZM169.49 0L167.99 0 167.99-29.5 169.49-29.5 169.49 0ZM172.49 0L170.99 0 170.99-29.5 172.49-29.5 172.49 0ZM178.49 0L173.99 0 173.99-29.5 178.49-29.5 178.49 0ZM185.99 0L184.49 0 184.49-29.5 185.99-29.5 185.99 0ZM162.09 7.25L162.09 7.25Q163.44 7.25 164.34 8.2L164.34 8.2 163.74 9.2 163.69 9.4 163.54 9.3Q163.49 9.1 163.44 9L163.44 9Q163.34 8.85 163.09 8.7L163.09 8.7Q162.64 8.4 161.99 8.4L161.99 8.4Q161.34 8.4 160.74 8.75L160.74 8.75Q160.14 9.05 159.79 9.75L159.79 9.75Q159.39 10.45 159.39 11.45L159.39 11.45 159.39 15.95 158.04 15.95 158.04 7.45 159.44 7.45 159.39 9Q159.74 8.2 160.49 7.7L160.49 7.7Q161.24 7.25 162.09 7.25ZM188.99 0L187.49 0 187.49-29.5 188.99-29.5 188.99 0ZM196.49 0L194.99 0 194.99-29.5 196.49-29.5 196.49 0ZM199.49 0L197.99 0 197.99-29.5 199.49-29.5 199.49 0ZM206.99 0L205.49 0 205.49-29.5 206.99-29.5 206.99 0ZM214.49 0L212.99 0 212.99-29.5 214.49-29.5 214.49 0ZM220.49 0L215.99 0 215.99-29.5 220.49-29.5 220.49 0ZM223.49 0L221.99 0 221.99-29.5 223.49-29.5 223.49 0ZM226.49 0L224.99 0 224.99-29.5 226.49-29.5 226.49 0ZM232.49 0L227.99 0 227.99-29.5 232.49-29.5 232.49 0ZM239.99 0L238.49 0 238.49-29.5 239.99-29.5 239.99 0ZM216.09 7.25L216.09 7.25Q217.44 7.25 218.34 8.2L218.34 8.2 217.74 9.2 217.69 9.4 217.54 9.3Q217.49 9.1 217.44 9L217.44 9Q217.34 8.85 217.09 8.7L217.09 8.7Q216.64 8.4 215.99 8.4L215.99 8.4Q215.34 8.4 214.74 8.75L214.74 8.75Q214.14 9.05 213.79 9.75L213.79 9.75Q213.39 10.45 213.39 11.45L213.39 11.45 213.39 15.95 212.04 15.95 212.04 7.45 213.44 7.45 213.39 9Q213.74 8.2 214.49 7.7L214.49 7.7Q215.24 7.25 216.09 7.25ZM242.99 0L241.49 0 241.49-29.5 242.99-29.5 242.99 0ZM250.49 0L248.99 0 248.99-29.5 250.49-29.5 250.49 0ZM253.49 0L251.99 0 251.99-29.5 253.49-29.5 253.49 0ZM260.99 0L259.49 0 259.49-29.5 260.99-29.5 260.99 0ZM268.49 0L266.99 0 266.99-29.5 268.49-29.5 268.49 0ZM274.49 0L269.99 0 269.99-29.5 274.49-29.5 274.49 0ZM277.49 0L275.99 0 275.99-29.5 277.49-29.5 277.49 0ZM283.49 0L278.99 0 278.99-29.5 283.49-29.5 283.49 0ZM290.99 0L289.49 0 289.49-29.5 290.99-29.5 290.99 0ZM293.99 0L292.49 0 292.49-29.5 293.99-29.5 293.99 0ZM268.89 16.15L268.89 16.15Q266.99 16.15 265.89 15L265.89 15Q264.74 13.85 264.74 11.75L264.74 11.75Q264.74 10.35 265.29 9.3L265.29 9.3Q265.79 8.3 266.69 7.8L266.69 7.8Q267.54 7.25 268.64 7.25L268.64 7.25Q270.19 7.25 271.14 8.25L271.14 8.25Q272.09 9.3 272.09 11.3L272.09 11.3Q272.09 11.5 272.09 11.9L272.09 11.9 266.04 11.9Q266.09 13.45 266.89 14.25L266.89 14.25Q267.69 15.05 268.94 15.05L268.94 15.05Q270.29 15.05 271.14 14.1L271.14 14.1 271.89 14.85Q270.79 16.15 268.89 16.15ZM266.09 10.85L270.74 10.85Q270.74 9.65 270.14 8.95L270.14 8.95Q269.54 8.25 268.54 8.25L268.54 8.25Q267.64 8.25 266.94 8.9L266.94 8.9Q266.24 9.55 266.09 10.85L266.09 10.85Z" opacity="1" transform="matrix(1,0,0,1,0,0)" fill="#ffffff" class="wordmark-text-0" data-fill-palette-color="primary" id="text-0"></path></svg></g></svg></g></svg></g></svg></g><g transform="matrix(1,0,0,1,410.01818838465306,0)"><svg viewBox="0 0 84.87307624489797 84.87307624489797" height="84.87307624489797" width="84.87307624489797"><g data-palette-color="#dedede"><rect width="23.198640840272116" height="84.87307624489797" fill="#ffffff" stroke="transparent" data-fill-palette-color="accent" x="0" fill-opacity="1"></rect><rect width="23.198640840272116" height="84.87307624489797" fill="#ffffff" stroke="transparent" data-fill-palette-color="accent" x="28.291025414965993" fill-opacity="0.75"></rect><rect width="23.198640840272116" height="84.87307624489797" fill="#ffffff" stroke="transparent" data-fill-palette-color="accent" x="56.58205082993199" fill-opacity="0.5"></rect></g></svg></g></svg></g><defs></defs></svg><rect width="395.5199999999999" height="67.83106010470803" fill="none" stroke="none" visibility="hidden"></rect></g></svg></g></svg>